<?xml version="1.0" encoding="UTF-8" standalone="no"?>
<!DOCTYPE svg PUBLIC "-//W3C//DTD SVG 1.1//EN" "http://www.w3.org/Graphics/SVG/1.1/DTD/svg11.dtd">
<svg width="100%" height="100%" viewBox="0 0 2000 1000" version="1.1" xmlns="http://www.w3.org/2000/svg" xmlns:xlink="http://www.w3.org/1999/xlink" xml:space="preserve" xmlns:serif="http://www.serif.com/" style="fill-rule:evenodd;clip-rule:evenodd;stroke-linecap:round;stroke-linejoin:round;stroke-miterlimit:1.5;">
    <g id="Top-guy" serif:id="Top guy" transform="matrix(2.025963,0,0,2.025963,-3049.492068,-218.830219)">
        <g transform="matrix(2.128846,0,0,1.766082,49.573654,-512.982731)">
            <path d="M916.189,490.197C922.725,476.569 935.795,476.569 942.33,483.383C948.866,490.197 948.866,503.826 942.33,517.454C937.755,527.675 925.992,537.896 916.189,544.71C906.387,537.896 894.624,527.675 890.049,517.454C883.514,503.826 883.514,490.197 890.049,483.383C896.584,476.569 909.654,476.569 916.189,490.197Z" style="fill:rgb(46,125,118);stroke:rgb(46,125,118);stroke-width:0.25px;"/>
        </g>
        <g id="Top-guy-body" serif:id="Top guy body" transform="matrix(1,0,0,1,10.78572,0)">
            <g>
                <path d="M1895.873,573.18C1895.873,573.18 1909.761,403.703 1890.754,386.979C1878.667,376.345 1604.789,385.894 1615.613,379.941C1577.476,344.344 1868.824,284.901 1988.013,282.682" style="fill:none;stroke:rgb(46,125,118);stroke-width:34px;"/>
            </g>
            <g transform="matrix(-1,0,0,1,3976.026191,0)">
                <path d="M1895.873,573.18C1895.873,573.18 1909.761,403.703 1890.754,386.979C1878.667,376.345 1604.789,385.894 1615.613,379.941C1577.476,344.344 1868.824,284.901 1988.013,282.682" style="fill:none;stroke:rgb(46,125,118);stroke-width:34px;"/>
            </g>
        </g>
        <g transform="matrix(0.964093,0,0,0.964093,-553.918431,-189.099504)">
            <circle cx="2647.792" cy="413.397" r="75.735" style="fill:none;stroke:rgb(46,125,118);stroke-width:34px;"/>
        </g>
    </g>
</svg>
